<?xml version="1.0" encoding="utf-8"?>
<!-- Generator: Adobe Illustrator 22.1.0, SVG Export Plug-In . SVG Version: 6.00 Build 0)  -->
<svg version="1.1" id="Layer_1" xmlns="http://www.w3.org/2000/svg" xmlns:xlink="http://www.w3.org/1999/xlink" x="0px" y="0px"
	 viewBox="0 0 404.3 404.3" style="enable-background:new 0 0 404.3 404.3;" xml:space="preserve">
<g>
	<path d="M202.2,206.9c18,0,35.5-10.8,49.2-30.3c11.9-16.9,19.1-37.9,19.1-56.3c0-37.7-30.6-68.3-68.3-68.3s-68.3,30.6-68.3,68.3
		c0,18.2,7.1,39.3,19,56.3C166.6,196.2,184.1,206.9,202.2,206.9z M151.5,120.4c0-13.5,5.2-26.1,14.7-35.8c9.6-9.6,22.4-14.9,36-14.9
		c27.9,0,50.7,22.8,50.7,50.7c0,14.6-6,32.3-15.9,46.2c-10.2,14.5-22.8,22.8-34.8,22.8s-24.7-8.3-34.8-22.8
		C157.5,152.6,151.5,134.9,151.5,120.4z"/>
	<path d="M300,239L300,239c-11.7-18.3-28.3-32.9-48-42.1c-3.4-1.5-7.4-0.8-9.9,1.7c-12.1,12-26,18.4-39.9,18.4
		c-14.1,0-27.9-6.3-39.9-18.4c-2.6-2.6-6.7-3.3-10-1.7c-19.5,9.3-36.1,23.9-47.9,42.1c-12.2,18.7-18.5,40.4-18.5,62.8v0.1
		c0,2.5,1,4.7,2.9,6.4c31.2,28.2,71.5,43.8,113.4,43.8s82.2-15.6,113.4-43.8c1.8-1.7,2.9-4.1,2.9-6.4v-0.1
		C318.3,279.4,312,257.7,300,239z M300.8,298.1c-27.5,23.6-62.4,36.6-98.6,36.6s-71.2-13-98.6-36.6c0.7-17.7,6-34.7,15.6-49.6
		c8.9-13.8,21.1-25.2,35.5-33.1c14.3,12.6,30.8,19.2,47.6,19.2s33.3-6.6,47.6-19.2c14.3,7.9,26.5,19.4,35.5,33.1
		C294.8,263.3,300.2,280.5,300.8,298.1z"/>
</g>
</svg>
