<?xml version="1.0" encoding="utf-8"?>
<!-- Generator: Adobe Illustrator 22.1.0, SVG Export Plug-In . SVG Version: 6.00 Build 0)  -->
<svg version="1.1" id="Capa_1" xmlns="http://www.w3.org/2000/svg" xmlns:xlink="http://www.w3.org/1999/xlink" x="0px" y="0px"
	 viewBox="0 0 512 512" style="enable-background:new 0 0 512 512;" xml:space="preserve">
<g>
	<path d="M326.6,105.5L326.6,105.5L326.6,105.5z"/>
	<path d="M384.2,129.1c-15.9-15.8-36.7-23.7-57.6-23.7v0.6l0,0v-0.6l0,0c-20.9,0-41.7,7.9-57.7,23.8c-29.9,29.7-31.7,77.2-5.5,109.4
		c-10.3,10.3-20.2,20.1-30,30c-0.1,0.1-0.3,0.3-0.4,0.4c-41.3,41.5-116.1,116.3-116.1,116.3l19.9,20l23.8-23.8l21.7,21.4l17.9-17.7
		L179,364.5l8.8-9l21.1,20.8l17.5-17.5l-21.1-20.8c0,0,57.5-57.5,79.6-79.6c39.1,20.8,77.4,9.5,99.7-13.2
		C416.5,213.3,416.3,160.9,384.2,129.1z M364.1,150c20.9,20.7,21,54.8,0.2,75.4c-20.6,20.5-54.4,20.4-75,0
		c-21-20.8-21-54.7-0.2-75.4C309.8,129.5,343.4,129.5,364.1,150z"/>
</g>
</svg>
