<?xml version="1.0" encoding="utf-8"?>
<!-- Generator: Adobe Illustrator 22.1.0, SVG Export Plug-In . SVG Version: 6.00 Build 0)  -->
<svg version="1.1" id="Capa_1" xmlns="http://www.w3.org/2000/svg" xmlns:xlink="http://www.w3.org/1999/xlink" x="0px" y="0px"
	 viewBox="0 0 482.8 482.8" style="enable-background:new 0 0 482.8 482.8;" xml:space="preserve">
<g>
	<path d="M337.5,222.1h-4.4v-39.1c0-50.5-41.1-91.7-91.7-91.7c-50.3,0-91.2,40.6-91.7,90.7c0,0.2,0,33.5,0,40h-4.3
		c-8.9,0-16.2,7.3-16.2,16.2v104.5c0,26.8,21.8,48.6,48.6,48.6h127.3c26.8,0,48.6-21.8,48.6-48.6V238.4
		C353.6,229.4,346.4,222.1,337.5,222.1z M166.5,181.5c0.8-40.6,34.1-73.3,74.9-73.3c41.3,0,74.9,33.6,74.9,74.9v39.1H166.5
		C166.5,215.6,166.5,182,166.5,181.5z M336.9,342.8c0,17.5-14.2,31.8-31.8,31.8H177.8c-17.5,0-31.8-14.2-31.8-31.8V238.9h190.9
		V342.8z"/>
	<path d="M241.5,339.4c17.3,0,31.4-14.1,31.4-31.4c0-17.3-14.1-31.4-31.4-31.4c-17.3,0-31.4,14.1-31.4,31.4S224.1,339.4,241.5,339.4
		z M241.5,293.3c8.1,0,14.6,6.6,14.6,14.6c0,8-6.5,14.7-14.6,14.7s-14.6-6.6-14.6-14.6C226.9,300,233.4,293.3,241.5,293.3z"/>
</g>
</svg>
